<svg xmlns="http://www.w3.org/2000/svg" viewBox="0 0 511.9 511.8"><g id="Layer_2" data-name="Layer 2"><g id="Layer_1-2" data-name="Layer 1"><path class="cls-1" fill="#fefefe" d="M511.9,511.8H0V0H511.9ZM93.05,487.49H418.91c0-21.09.52-41.85-.18-62.57-.46-13.74-8-24.38-18.27-33.23-11.08-9.51-24.12-12.91-38.27-12.93q-77-.11-154,0h-6v-68.2H360.44c.1-2,.24-3.42.24-4.88,0-15.83-.07-31.66,0-47.49a58,58,0,0,0-6.16-26.71c-10.49-20.87-28.56-30.17-51.12-30.28-68.48-.33-137-.12-205.45-.12H93.05Zm0-354.55H98q111.94,0,223.89-.09a102.29,102.29,0,0,0,21.1-2.14c22.9-4.93,41.31-17.12,56.1-35.28a91.45,91.45,0,0,0,19.56-44.67c1.35-8.72,1.1-17.68,1.57-26.6H93.07Z"/><path class="cls-2" fill="#1dc6e6" d="M93.05,487.49V201.05H98c68.49,0,137-.21,205.45.12,22.56.11,40.63,9.41,51.12,30.28a58,58,0,0,1,6.16,26.71c-.11,15.83,0,31.66,0,47.49,0,1.46-.14,2.92-.24,4.88H202.18v68.2h6q77,0,154,0c14.15,0,27.19,3.42,38.27,12.93,10.31,8.85,17.81,19.49,18.27,33.23.7,20.72.18,41.48.18,62.57Z"/><path class="cls-3" fill="#1fe5b7" d="M93.07,132.94V24.16H420.23c-.47,8.92-.22,17.88-1.57,26.6A91.45,91.45,0,0,1,399.1,95.43c-14.79,18.16-33.2,30.35-56.1,35.28a102.29,102.29,0,0,1-21.1,2.14Q210,133.06,98,132.94Z"/></g></g></svg>